<mxfile host="app.diagrams.net" modified="2023-11-17T10:52:42.847Z" agent="Mozilla/5.0 (Windows NT 10.0; Win64; x64) AppleWebKit/537.36 (KHTML, like Gecko) Chrome/119.0.0.0 Safari/537.36" version="22.1.2" etag="aHBy82-EhbsrLT5WKmyJ" type="github">
  <diagram name="페이지-1" id="HCsCM02513WGVO04BGa-">
    <mxGraphModel>
      <root>
        <mxCell id="0" />
        <mxCell id="1" parent="0" />
      </root>
    </mxGraphModel>
  </diagram>
</mxfile>
